# xmcd
#
# Track frame offsets:
#	150
#	26177
#	41570
#	58230
#	82370
#	98640
#	120002
#	136012
#	151017
#	165282
#	176350
#	188302
#	212562
#	231272
#	242832
#	252395
#	272172
#	289097
#
# Disc length: 4066 seconds
#
# Revision: 1
# Processed by: cddbd v1.4PL0 Copyright (c) Steve Scherf et al.
# Submitted via: audiograbber 1.81.03
#
DISCID=ea0fe012
DTITLE=Various Artist - Friday Night Live
DYEAR=2000
DGENRE=Blues
TTITLE0=Zydeco Party Band - Paper In My Shoe
TTITLE1=Lucinda Williams - Disgusted
TTITLE2=Johnny Dyer and Rick Holmstrom - Little Girl
TTITLE3=Catfish Hodge - Pancake Man
TTITLE4=Lee McBee - Help Me Spend My Gold
TTITLE5=Bill Lynch - God Bless The Child
TTITLE6=Pete Anderson - Working Class
TTITLE7=The Blazers - Come On Baby
TTITLE8=Rich and Maureen Delgrosso - Get Your Nose Outta My Business
TTITLE9=Evie Sands - Interview
TTITLE10=Evie Sands - Fingerprint Me Baby
TTITLE11=Lonnie Brooks - (I'm Your) Hoochie Coochie Man
TTITLE12=Janiva Magness - Good Car
TTITLE13=Floyd Dixon and Steve F'dor - Interview
TTITLE14=Floyd Dixon - I Think Or You, Babe
TTITLE15=Doug MacLeod and John "Juke" Logan - One Good Woman
TTITLE16=William Clarke - Interview
TTITLE17=William Clarke - Red Headed Woman
EXTD=
EXTT0=
EXTT1=
EXTT2=
EXTT3=
EXTT4=
EXTT5=
EXTT6=
EXTT7=
EXTT8=
EXTT9=
EXTT10=
EXTT11=
EXTT12=
EXTT13=
EXTT14=
EXTT15=
EXTT16=
EXTT17=
PLAYORDER=
